<svg xmlns="http://www.w3.org/2000/svg" viewBox="0 0 980 642" width="980" height="642" font-family="-apple-system, BlinkMacSystemFont, 'Segoe UI', Helvetica, Arial, sans-serif">
<rect x="0" y="0" width="980" height="642" rx="12" fill="#f6f8fa" stroke="#d0d7de" stroke-width="1"/>
<text x="490" y="32" font-size="20" font-weight="700" fill="#1f2328" text-anchor="middle">go-pug vs Joker/jade — render throughput</text>
<text x="490" y="52" font-size="12.5" fill="#57606a" text-anchor="middle">renders/second per template, log scale (Joker's precompiled path) — AMD Ryzen 9 5900HX, go1.26.0, Joker/jade v1.1.3</text>
<rect x="279.8" y="63" width="14" height="14" rx="2" fill="#0072b2"/>
<text x="299.8" y="74" font-size="12.5" fill="#1f2328">go-pug interpreter</text>
<rect x="457.4" y="63" width="14" height="14" rx="2" fill="#009e73"/>
<text x="477.4" y="74" font-size="12.5" fill="#1f2328">go-pug codegen</text>
<rect x="606.2" y="63" width="14" height="14" rx="2" fill="#cc79a7"/>
<text x="626.2" y="74" font-size="12.5" fill="#1f2328">Joker/jade</text>
<line x1="90" y1="512" x2="950" y2="512" stroke="#d0d7de" stroke-width="1"/>
<text x="82" y="516" font-size="11" fill="#57606a" text-anchor="end">10,000</text>
<line x1="90" y1="372" x2="950" y2="372" stroke="#d0d7de" stroke-width="1"/>
<text x="82" y="376" font-size="11" fill="#57606a" text-anchor="end">100,000</text>
<line x1="90" y1="232" x2="950" y2="232" stroke="#d0d7de" stroke-width="1"/>
<text x="82" y="236" font-size="11" fill="#57606a" text-anchor="end">1,000,000</text>
<line x1="90" y1="92" x2="950" y2="92" stroke="#d0d7de" stroke-width="1"/>
<text x="82" y="96" font-size="11" fill="#57606a" text-anchor="end">10,000,000</text>
<text x="18" y="302" font-size="12.5" fill="#57606a" text-anchor="middle" transform="rotate(-90 18 302)">renders / second (log scale)</text>
<rect x="107.19999999999999" y="433.40072319586153" width="51.6" height="78.59927680413847" fill="#0072b2"/>
<text x="133" y="428.40072319586153" font-size="9.5" fill="#1f2328" text-anchor="middle">36,427</text>
<rect x="171.7" y="260.8182437629566" width="51.6" height="251.18175623704337" fill="#009e73"/>
<text x="197.5" y="255.81824376295663" font-size="9.5" fill="#1f2328" text-anchor="middle">622,523</text>
<rect x="236.2" y="355.38276889430267" width="51.6" height="156.61723110569733" fill="#cc79a7"/>
<text x="262" y="350.38276889430267" font-size="9.5" fill="#1f2328" text-anchor="middle">131,430</text>
<text x="197.5" y="528" font-size="12" fill="#1f2328" text-anchor="end" transform="rotate(-30 197.5 528)">card_list</text>
<rect x="322.2" y="434.19708113512286" width="51.6" height="77.80291886487714" fill="#0072b2"/>
<text x="348" y="429.19708113512286" font-size="9.5" fill="#1f2328" text-anchor="middle">35,953</text>
<rect x="386.7" y="294.37745385287525" width="51.6" height="217.62254614712475" fill="#009e73"/>
<text x="412.5" y="289.37745385287525" font-size="9.5" fill="#1f2328" text-anchor="middle">358,465</text>
<rect x="451.2" y="367.46891705290284" width="51.6" height="144.53108294709716" fill="#cc79a7"/>
<text x="477" y="362.46891705290284" font-size="9.5" fill="#1f2328" text-anchor="middle">107,737</text>
<text x="412.5" y="528" font-size="12" fill="#1f2328" text-anchor="end" transform="rotate(-30 412.5 528)">table</text>
<rect x="537.2" y="367.6996083808305" width="51.6" height="144.3003916191695" fill="#0072b2"/>
<text x="563" y="362.6996083808305" font-size="9.5" fill="#1f2328" text-anchor="middle">107,329</text>
<rect x="601.7" y="239.57879246123048" width="51.6" height="272.4212075387695" fill="#009e73"/>
<text x="627.5" y="234.57879246123048" font-size="9.5" fill="#1f2328" text-anchor="middle">882,807</text>
<rect x="666.2" y="295.90678376925223" width="51.6" height="216.09321623074777" fill="#cc79a7"/>
<text x="692" y="290.90678376925223" font-size="9.5" fill="#1f2328" text-anchor="middle">349,561</text>
<text x="627.5" y="528" font-size="12" fill="#1f2328" text-anchor="end" transform="rotate(-30 627.5 528)">form</text>
<rect x="752.2" y="352.92572775554015" width="51.6" height="159.07427224445985" fill="#0072b2"/>
<text x="778" y="347.92572775554015" font-size="9.5" fill="#1f2328" text-anchor="middle">136,850</text>
<rect x="816.7" y="216.50570563974173" width="51.6" height="295.49429436025827" fill="#009e73"/>
<text x="842.5" y="211.50570563974173" font-size="9.5" fill="#1f2328" text-anchor="middle">1,290,249</text>
<rect x="881.2" y="330.61660403085034" width="51.6" height="181.38339596914966" fill="#cc79a7"/>
<text x="907" y="325.61660403085034" font-size="9.5" fill="#1f2328" text-anchor="middle">197,513</text>
<text x="842.5" y="528" font-size="12" fill="#1f2328" text-anchor="end" transform="rotate(-30 842.5 528)">blog</text>
<line x1="90" y1="512" x2="950" y2="512" stroke="#8c959f" stroke-width="1.5"/>
</svg>
