<svg xmlns="http://www.w3.org/2000/svg" viewBox="0 0 980 642" width="980" height="642" font-family="-apple-system, BlinkMacSystemFont, 'Segoe UI', Helvetica, Arial, sans-serif">
<rect x="0" y="0" width="980" height="642" rx="12" fill="#f6f8fa" stroke="#d0d7de" stroke-width="1"/>
<text x="490" y="32" font-size="20" font-weight="700" fill="#1f2328" text-anchor="middle">go-pug vs Joker/jade — render throughput</text>
<text x="490" y="52" font-size="12.5" fill="#57606a" text-anchor="middle">renders/second per template, log scale (Joker's precompiled path) — AMD Ryzen 9 5900HX, go1.26.0, Joker/jade v1.1.3</text>
<rect x="279.8" y="63" width="14" height="14" rx="2" fill="#0072b2"/>
<text x="299.8" y="74" font-size="12.5" fill="#1f2328">go-pug interpreter</text>
<rect x="457.4" y="63" width="14" height="14" rx="2" fill="#009e73"/>
<text x="477.4" y="74" font-size="12.5" fill="#1f2328">go-pug codegen</text>
<rect x="606.2" y="63" width="14" height="14" rx="2" fill="#cc79a7"/>
<text x="626.2" y="74" font-size="12.5" fill="#1f2328">Joker/jade</text>
<line x1="90" y1="512" x2="950" y2="512" stroke="#d0d7de" stroke-width="1"/>
<text x="82" y="516" font-size="11" fill="#57606a" text-anchor="end">10,000</text>
<line x1="90" y1="372" x2="950" y2="372" stroke="#d0d7de" stroke-width="1"/>
<text x="82" y="376" font-size="11" fill="#57606a" text-anchor="end">100,000</text>
<line x1="90" y1="232" x2="950" y2="232" stroke="#d0d7de" stroke-width="1"/>
<text x="82" y="236" font-size="11" fill="#57606a" text-anchor="end">1,000,000</text>
<line x1="90" y1="92" x2="950" y2="92" stroke="#d0d7de" stroke-width="1"/>
<text x="82" y="96" font-size="11" fill="#57606a" text-anchor="end">10,000,000</text>
<text x="18" y="302" font-size="12.5" fill="#57606a" text-anchor="middle" transform="rotate(-90 18 302)">renders / second (log scale)</text>
<rect x="107.19999999999999" y="427.7161614771573" width="51.6" height="84.2838385228427" fill="#0072b2"/>
<text x="133" y="422.7161614771573" font-size="9.5" fill="#1f2328" text-anchor="middle">39,997</text>
<rect x="171.7" y="260.46463769959433" width="51.6" height="251.53536230040567" fill="#009e73"/>
<text x="197.5" y="255.46463769959433" font-size="9.5" fill="#1f2328" text-anchor="middle">626,154</text>
<rect x="236.2" y="354.84803355057466" width="51.6" height="157.15196644942534" fill="#cc79a7"/>
<text x="262" y="349.84803355057466" font-size="9.5" fill="#1f2328" text-anchor="middle">132,591</text>
<text x="197.5" y="528" font-size="12" fill="#1f2328" text-anchor="end" transform="rotate(-30 197.5 528)">card_list</text>
<rect x="322.2" y="430.9953235570272" width="51.6" height="81.00467644297282" fill="#0072b2"/>
<text x="348" y="425.9953235570272" font-size="9.5" fill="#1f2328" text-anchor="middle">37,897</text>
<rect x="386.7" y="291.3815994305178" width="51.6" height="220.61840056948222" fill="#009e73"/>
<text x="412.5" y="286.3815994305178" font-size="9.5" fill="#1f2328" text-anchor="middle">376,570</text>
<rect x="451.2" y="366.59206478045064" width="51.6" height="145.40793521954936" fill="#cc79a7"/>
<text x="477" y="361.59206478045064" font-size="9.5" fill="#1f2328" text-anchor="middle">109,302</text>
<text x="412.5" y="528" font-size="12" fill="#1f2328" text-anchor="end" transform="rotate(-30 412.5 528)">table</text>
<rect x="537.2" y="364.07013269739696" width="51.6" height="147.92986730260304" fill="#0072b2"/>
<text x="563" y="359.07013269739696" font-size="9.5" fill="#1f2328" text-anchor="middle">113,931</text>
<rect x="601.7" y="240.07080649603722" width="51.6" height="271.9291935039628" fill="#009e73"/>
<text x="627.5" y="235.07080649603722" font-size="9.5" fill="#1f2328" text-anchor="middle">875,692</text>
<rect x="666.2" y="296.20721645721113" width="51.6" height="215.79278354278887" fill="#cc79a7"/>
<text x="692" y="291.20721645721113" font-size="9.5" fill="#1f2328" text-anchor="middle">347,838</text>
<text x="627.5" y="528" font-size="12" fill="#1f2328" text-anchor="end" transform="rotate(-30 627.5 528)">form</text>
<rect x="752.2" y="342.0922691408896" width="51.6" height="169.90773085911042" fill="#0072b2"/>
<text x="778" y="337.0922691408896" font-size="9.5" fill="#1f2328" text-anchor="middle">163,541</text>
<rect x="816.7" y="213.4587630988301" width="51.6" height="298.5412369011699" fill="#009e73"/>
<text x="842.5" y="208.4587630988301" font-size="9.5" fill="#1f2328" text-anchor="middle">1,356,555</text>
<rect x="881.2" y="329.58069038248425" width="51.6" height="182.41930961751575" fill="#cc79a7"/>
<text x="907" y="324.58069038248425" font-size="9.5" fill="#1f2328" text-anchor="middle">200,907</text>
<text x="842.5" y="528" font-size="12" fill="#1f2328" text-anchor="end" transform="rotate(-30 842.5 528)">blog</text>
<line x1="90" y1="512" x2="950" y2="512" stroke="#8c959f" stroke-width="1.5"/>
</svg>
